<svg xmlns="http://www.w3.org/2000/svg" xml:space="preserve" viewBox="256 355.8 512 56.5" class="fill-black h-6"><path d="M294.3 378.7c-8.2-2-10.7-3.2-10.7-6.8 0-5.1 6.9-5.6 9-5.6a23 23 0 0 1 13.3 3.6l5.2-6.7a32 32 0 0 0-18.5-5.3c-12 0-17.5 7-17.5 14 0 10.6 9.9 13.1 17 15 8.7 2.2 12.2 3.6 12.2 8.8 0 1.4-.4 3.5-3.3 5-5.3 2.5-15.8 1.3-23-4.6l-5.3 6.5c6.2 5 14.3 7.7 21.7 7.7 3.7 0 7.2-.6 10.2-2 5.2-2.5 8.1-7 8.1-12.6 0-12.2-10.6-15-18.4-17zM353 359v28h-23.5v-28h-8.4v50h8.4v-13.7H353v13.8h8.4v-50.2zM451.2 359h-20v50h8.5v-14.7h11a19 19 0 0 0 14-5.4c3-3.2 4.7-7.5 4.7-12.1 0-11.6-9.4-17.9-18.2-17.9zm7.4 24a10.5 10.5 0 0 1-7.9 3h-11v-18.7h11.5c6.7 0 9.8 5 9.8 9.5 0 2.4-.8 4.6-2.4 6.2zM509.3 359v28h-23.5v-28h-8.4v50h8.4v-13.7h23.5v13.8h8.3v-50.2zM559.5 359v27.7c0 10-3.9 15.2-11.7 15.2-10.5 0-11.7-10.7-11.7-15.2v-27.8h-8.4v27.8c0 14.3 8 23.6 20.1 23.6 12.6 0 20.1-8.8 20.1-23.6v-27.8zM611.4 359v37.4l-22.8-37.5H578v50.2h8.5v-37.4l22.8 37.4h10.5v-50.2ZM626.3 359v8.3h15.2v41.8h8.4v-41.8h15.2V359zM671.6 359v50h31v-8.3H680v-13h16.7v-8.4H680v-12h22.5V359zM742 395.4a12 12 0 0 0-1-2.4c1.9-1 3.4-2.2 4.5-3.3 3-3.3 4.8-7.7 4.8-12.4 0-12-9.6-18.4-18.7-18.4h-20.5v50.2h8.4v-13.8h10.8c1.9 0 3.2 1 3.8 3l.2.4a19 19 0 0 0 17 11.6V402c-5.7 0-8.5-4.8-9.3-6.5zm-10.9-8.6h-11.6v-19.5h12.1c7 0 10.3 5.1 10.3 10 0 2.5-.9 4.9-2.5 6.5-1.9 2-4.8 3-8.3 3z" transform="translate(-35.7 -27) scale(1.0697)"></path><path d="M396.2 358a32.6 32.6 0 0 0-6.4.8 32.9 32.9 0 0 0-5.7 2.2 35.9 35.9 0 0 0-5 3.4 36.2 36.2 0 0 0-4 4.2 34.4 34.4 0 0 0-3.1 5.5 29.6 29.6 0 0 0-2 7.6 34.8 34.8 0 0 0 .1 6 31 31 0 0 0 1.8 6.6 36.2 36.2 0 0 0 2.8 5.2 32.4 32.4 0 0 0 5 5.4 30.7 30.7 0 0 0 6.8 4 32.6 32.6 0 0 0 6 1.6 33 33 0 0 0 6.8 0 40 40 0 0 0 5.4-1.2 30.6 30.6 0 0 0 6.7-3.4 30 30 0 0 0 5.9-5.7 34 34 0 0 0 3-5.1 35 35 0 0 0 1.8-5.6 32 32 0 0 0 .4-7 34 34 0 0 0-1.1-6 29.7 29.7 0 0 0-3.6-7.2 32.4 32.4 0 0 0-5.1-5.5 31.2 31.2 0 0 0-6.4-3.8 21.8 21.8 0 0 0-4.8-1.4 34.8 34.8 0 0 0-5.3-.6zm0 3.2a27.4 27.4 0 0 1 6.2.8 29.6 29.6 0 0 1 4.9 2 30 30 0 0 1 4.6 3.2 29.6 29.6 0 0 1 3.6 4.2 26.4 26.4 0 0 1 3 6.3 29.7 29.7 0 0 1 1 5.8 24.7 24.7 0 0 1-2.8 12 27.9 27.9 0 0 1-3.8 5 27.7 27.7 0 0 1-2.7 2.5v-15h.2a7 7 0 0 0 1-.5 6.3 6.3 0 0 0 1.3-1 7.4 7.4 0 0 0 .8-1.2 7 7 0 0 0 .5-1.5 7.5 7.5 0 0 0 0-1.2 7.5 7.5 0 0 0-.1-1.1 6 6 0 0 0-.6-1.5 7.3 7.3 0 0 0-.8-1 6.8 6.8 0 0 0-1-.8 7.8 7.8 0 0 0-1.1-.5 7 7 0 0 0-1.2-.3 6.3 6.3 0 0 0-2.3.3 6 6 0 0 0-1.4.7 7.2 7.2 0 0 0-1 1 8.2 8.2 0 0 0-.7 1 6.2 6.2 0 0 0-.5 1.5 6.6 6.6 0 0 0 0 1.5 6.8 6.8 0 0 0 .3 1.3 7.2 7.2 0 0 0 .5 1.1 6.3 6.3 0 0 0 .9 1 8.8 8.8 0 0 0 1 .8 5.8 5.8 0 0 0 1 .4V405l-.2.2a28 28 0 0 1-6 2 28.1 28.1 0 0 1-3 .5v-28l.2-.2a8.2 8.2 0 0 0 1-.4 7.5 7.5 0 0 0 1-.8 6.8 6.8 0 0 0 .8-1 6.5 6.5 0 0 0 .7-1.6 6.6 6.6 0 0 0 .2-1 4.9 4.9 0 0 0-.2-1.6 6.3 6.3 0 0 0-.4-1 6 6 0 0 0-1.2-1.7 8 8 0 0 0-.9-.7 6.7 6.7 0 0 0-1.4-.5 6 6 0 0 0-1.9-.2 7 7 0 0 0-1.5.4 6.5 6.5 0 0 0-1.5 1 6.8 6.8 0 0 0-1.1 1.2 6.8 6.8 0 0 0-.5 1 6.4 6.4 0 0 0-.3 1.5 4.7 4.7 0 0 0 .1 1.3 6.6 6.6 0 0 0 .5 1.4 7.1 7.1 0 0 0 .7 1.1 6.6 6.6 0 0 0 1.4 1.2 6.2 6.2 0 0 0 1 .4l.2.1v28a10.3 10.3 0 0 0-.8 0 31.6 31.6 0 0 1-5-1 29.1 29.1 0 0 1-3-1.3l-.5-.3V388h.2a6.8 6.8 0 0 0 1.3-.7 6.6 6.6 0 0 0 1-.8 8.6 8.6 0 0 0 .7-1 5.4 5.4 0 0 0-.4-5.8 7 7 0 0 0-1-1.1 8.8 8.8 0 0 0-1-.6 6 6 0 0 0-1.4-.5 7.8 7.8 0 0 0-1 0 4.2 4.2 0 0 0-1.4.1 6.5 6.5 0 0 0-1.3.6 7.2 7.2 0 0 0-1 .7 8.3 8.3 0 0 0-.8 1 7 7 0 0 0-.6 1.2 6.2 6.2 0 0 0-.3 1.5 4.3 4.3 0 0 0 0 1 6.6 6.6 0 0 0 .5 1.4 6.6 6.6 0 0 0 .7 1.2 8.4 8.4 0 0 0 .9.9 6.4 6.4 0 0 0 1.4.8h.3l.1.1v7.5a2447.7 2447.7 0 0 1-.2 7.3 25.9 25.9 0 0 1-5.6-6.2 28.5 28.5 0 0 1-2.3-5 26.8 26.8 0 0 1-1.2-6.3 28.2 28.2 0 0 1 .8-7 29.6 29.6 0 0 1 2-5 30.6 30.6 0 0 1 3.2-4.5 33 33 0 0 1 4.1-3.6 25.6 25.6 0 0 1 7-3.2 27 27 0 0 1 6-.8zm.1 10.8a2.3 2.3 0 0 1 1 .2l.2.2c.2 0 .3.1.4.3a2.3 2.3 0 0 1 .6.9 2.8 2.8 0 0 1 0 .5v.4a3 3 0 0 1 0 .6 3 3 0 0 1-.3.5 3 3 0 0 1-.4.5 3 3 0 0 1-.5.3 3 3 0 0 1-.6.2 2.8 2.8 0 0 1-.6 0 2.7 2.7 0 0 1-.6 0 3.2 3.2 0 0 1-.5-.3 3.4 3.4 0 0 1-.5-.4 3 3 0 0 1-.3-.6 3 3 0 0 1-.2-.5 3.2 3.2 0 0 1 0-.7 3.4 3.4 0 0 1 0-.5 2.7 2.7 0 0 1 .3-.6l.3-.3a2.2 2.2 0 0 1 1.2-.7h.5zm-12.5 8.5a2.5 2.5 0 0 1 1.6.6 2.5 2.5 0 0 1 .6.7 2.6 2.6 0 0 1 .2.8 2.2 2.2 0 0 1-.1.9 2.6 2.6 0 0 1-.4.7 2.9 2.9 0 0 1-.5.5 2.8 2.8 0 0 1-.8.4 2.8 2.8 0 0 1-.7 0 3.5 3.5 0 0 1-.6 0 2.8 2.8 0 0 1-.6-.4 2.4 2.4 0 0 1-.7-.8 2.6 2.6 0 0 1-.3-.8 2.3 2.3 0 0 1 .2-1.2 2.9 2.9 0 0 1 .3-.4 2.7 2.7 0 0 1 .4-.4 3 3 0 0 1 .5-.4 2.9 2.9 0 0 1 .5-.1 3.4 3.4 0 0 1 .4 0zm24.8 0a2.5 2.5 0 0 1 1.7.7 2.8 2.8 0 0 1 .4.5 3 3 0 0 1 .2.5 2.7 2.7 0 0 1 0 .8 3.6 3.6 0 0 1 0 .6 2.7 2.7 0 0 1-.4.6 2.9 2.9 0 0 1-.5.6 3 3 0 0 1-.6.2 3 3 0 0 1-.6.1h-.3a3.6 3.6 0 0 1-.6 0 2.5 2.5 0 0 1-.7-.5 2.8 2.8 0 0 1-.4-.4 2.8 2.8 0 0 1-.3-.5 2.6 2.6 0 0 1-.2-.7 2.2 2.2 0 0 1 .1-1 3.1 3.1 0 0 1 .3-.4 3 3 0 0 1 .4-.5 2.9 2.9 0 0 1 .5-.4 2.9 2.9 0 0 1 .8-.2h.2z" transform="translate(-35.7 -27) scale(1.0697)"></path></svg>